<svg xmlns="http://www.w3.org/2000/svg" viewBox="0 0 64 64" width="64" height="64">
  <circle cx="32" cy="32" r="24" fill="#FFD966" stroke="#E09C2B" stroke-width="4"/>
  <ellipse cx="32" cy="40" rx="10" ry="7" fill="#E09C2B"/>
  <ellipse cx="24" cy="28" rx="3" ry="4" fill="#fff"/>
  <ellipse cx="40" cy="28" rx="3" ry="4" fill="#fff"/>
  <circle cx="24" cy="29" r="1.2" fill="#333"/>
  <circle cx="40" cy="29" r="1.2" fill="#333"/>
  <ellipse cx="32" cy="36" rx="2.5" ry="1.5" fill="#fff"/>
  <ellipse cx="32" cy="44" rx="3.5" ry="2" fill="#fff"/>
  <ellipse cx="32" cy="44" rx="2.5" ry="1.2" fill="#E09C2B"/>
  <ellipse cx="32" cy="36" rx="1.2" ry="0.7" fill="#E09C2B"/>
  <ellipse cx="32" cy="38.5" rx="1.5" ry="0.7" fill="#E09C2B"/>
  <ellipse cx="20" cy="38" rx="2" ry="1" fill="#E09C2B"/>
  <ellipse cx="44" cy="38" rx="2" ry="1" fill="#E09C2B"/>
  <ellipse cx="32" cy="32" rx="1.5" ry="1" fill="#333"/>
  <path d="M29 42 Q32 45 35 42" stroke="#333" stroke-width="1.5" fill="none"/>
  <ellipse cx="16" cy="24" rx="4" ry="6" fill="#FFD966" stroke="#E09C2B" stroke-width="2"/>
  <ellipse cx="48" cy="24" rx="4" ry="6" fill="#FFD966" stroke="#E09C2B" stroke-width="2"/>
</svg> 